<svg width="300" height="130" xmlns="http://www.w3.org/2000/svg" version="1.1" preserveAspectRatio="none" ref="svg_canvas">
 <g>
  <title>Layer 1</title>
  <g id="svg_1">
   <path id="svg_15" data-glyph-descender="-18" data-glyph-ascender="84.1875" data-glyph-h="102.1875" data-glyph-w="98" stroke-width="0" stroke="rgb(208, 173, 141)" fill="#306856" transform="skewX(0) matrix(1.29979 0 0 1.22662 20.995 -206.396)" d="m37.31394,187.24348l24.94,0l25.13,0l0,1.88l0,1.69l-14.25,0.18l-14.25,0l0,5.63l0,5.44l6.18,0.18q6.19,0 6.19,-0.37q0,-0.38 0.56,-0.38l0,0q0.38,-0.18 3.94,-0.18l0,0l3.56,0.18l0,6.19q0.19,6.19 0,7.5l0,0q-0.37,1.31 -0.93,2.25l0,0q-0.38,0.56 -0.57,1.31l0,0q0,0 0.85,0.1q0.84,0.09 2.34,0.09q1.5,0 3.19,0l0,0l6.56,0l0,1.69l0,1.87l-28.31,0l-28.31,0l0,-1.87l0,-1.69l8.25,0l8.43,0l0,-6.56l-0.18,-6.56l-6,-0.19l-6,0l0,-1.69l0,-1.69l6,0l6,-0.18l0.18,-5.63l0,-5.62l-6.75,0l-6.56,0l-0.19,-1.88l0,-1.69zm33.94,18.38l-6.19,0q-6.18,0 -6.18,0.19l0,0q-0.19,0.56 -0.19,5.25l0,0l-0.19,4.87l-0.56,1.31q-0.38,0.75 -0.75,1.5l0,0q0,0 2.06,0.1q2.06,0.09 5.06,0.09l0,0l6.94,0l0,-6.75l0,-6.56zm-57.75,-16.69l7.88,0l7.87,0l0,1.88l0,1.87l-7.87,0l-7.88,0l0,-1.87l0,-1.88zm0,22.88l4.69,0q4.5,0.18 8.25,0.18l0,0l3.37,0l0,14.25q0,14.07 0.38,14.07l0,0q0.19,0 3.19,-0.75l0,0q2.81,-0.75 3.28,-0.75q0.47,0 0.47,0.37l0,0q0.18,0.38 0.18,0.94l0,0q0,0.75 -0.28,0.75q-0.28,0 -5.53,5.25l0,0q-5.44,5.25 -6.75,6.19l0,0q-1.12,0.93 -3,1.87l0,0q-1.69,0.75 -3.56,1.31l0,0q-1.69,0.57 -3.19,0.75l0,0q-1.5,0.19 -1.69,0.19l0,0q-0.56,0 -0.56,-2.06l0,0l0,-2.06l0.94,0q0.75,0 2.06,-0.38l0,0q1.13,-0.37 1.97,-1.03q0.84,-0.66 1.69,-1.87q0.84,-1.22 1.4,-2.72l0,0q0.38,-1.69 0.75,-3.19l0,0q0.19,-1.69 0.19,-14.25l0,0l0,-12.94l-1.87,-0.19q-1.69,0 -3.94,0l0,0l-2.44,0l0,-2.06l0,-1.87zm29.63,16.68l3.93,0l4.13,0.19l0,0.56l0,0.57l11.25,0l11.25,0l0,-0.75l0,-0.57l3.94,0l3.93,0l0,11.82l0,11.81l-0.75,1.5q-0.75,1.5 -1.87,2.44q-1.13,0.94 -2.63,1.69l0,0q-1.31,0.75 -2.06,0.75l0,0l-0.56,0.18l0,-2.62l0,-2.63l-11.63,0l-11.62,0l-0.56,0.94q-0.57,0.75 -1.69,1.78q-1.13,1.03 -2.44,1.69q-1.31,0.66 -2.06,0.66l0,0l-0.56,0.18l0,-15l0,-15.19zm30.56,4.88l-11.25,0l-11.25,0l0,8.25l0,8.25l11.25,0l11.25,0l0,-8.25l0,-8.25z"/>
   <path id="svg_16" data-glyph-descender="-18" data-glyph-ascender="84.1875" data-glyph-h="102.1875" data-glyph-w="98" stroke-width="0" stroke="rgb(208, 173, 141)" fill="#306856" transform="skewX(0) matrix(1.29979 0 0 1.22662 20.995 -206.396)" d="m128.75394,184.06348l3.75,0l3.75,0l0,7.31l0,7.31l6.19,0l6.19,0.19l0,1.69l0,1.87l-6.19,0l-6.19,0l0,25.13q0,25.12 -0.37,26.43q-0.38,1.32 -0.94,2.44q-0.56,1.13 -1.88,2.63l0,0q-1.12,1.12 -2.62,2.06l0,0q-1.5,0.75 -1.6,0.75q-0.09,0 -0.09,-29.81l0,0l0,-29.63l-6.56,0l-6.56,0l0,-1.87l0,-1.69l6.56,0l6.56,0l0,-7.5l0,-7.31zm35.25,0l3.75,0l3.75,0l0,7.31l0,7.31l6.19,0l6.19,0.19l0,1.69l0,1.87l-6.19,0l-6.19,0l0,25.13q0,16.5 -0.09,21q-0.1,4.5 -0.28,5.43l0,0q-0.19,1.5 -0.94,2.82l0,0q-0.75,1.31 -1.88,2.44l0,0q-1.31,1.31 -2.62,1.87l0,0q-1.31,0.75 -1.5,0.66q-0.19,-0.1 -0.19,-29.72l0,0l0,-29.63l-6.56,0l-6.56,0l0,-1.87l0,-1.69l6.56,0l6.56,0l0,-7.5l0,-7.31zm-43.5,22.68l0,0l3.56,0l0,22.13l0,22.12l-0.37,1.69q-0.56,1.5 -1.13,2.63l0,0q-0.75,1.12 -1.5,2.06l0,0q-0.93,0.94 -2.06,1.5l0,0q-1.31,0.75 -1.69,0.94l0,0q-0.56,0.37 -0.65,0.19q-0.1,-0.19 -0.1,-26.63l0,0q0,-26.44 0.1,-26.53q0.09,-0.1 3.84,-0.1zm23.06,0l0,0l3.57,0l0,22.32q0,22.12 -0.38,23.43l0,0q-0.37,1.32 -0.94,2.63l0,0q-0.75,1.31 -1.87,2.44l0,0q-1.31,1.31 -2.63,1.97q-1.31,0.65 -1.5,0.47l0,0q-0.18,-0.19 -0.18,-26.63q0,-26.44 0.18,-26.53q0.19,-0.1 3.75,-0.1zm8.44,0l3.75,0l3.75,0l0,22.69l-0.19,22.69l-0.37,1.31q-0.56,1.13 -1.22,2.25q-0.66,1.13 -1.88,2.25q-1.21,1.13 -2.15,1.5l0,0q-0.94,0.57 -1.31,0.57l0,0q-0.38,0 -0.38,-26.63l0,0l0,-26.63zm24.19,0l3.75,0l3.75,0l0,22.32l-0.19,22.5l-0.56,1.68q-0.56,1.5 -1.31,2.82l0,0q-0.75,1.12 -1.5,1.69l0,0q-0.94,0.75 -1.5,1.31l0,0q-0.75,0.37 -1.69,0.75l0,0l-0.75,0.37l0,-26.81l0,-26.63z"/>
  </g>
 </g>

</svg>